<?xml version="1.0" standalone="no"?>
<!DOCTYPE svg PUBLIC "-//W3C//DTD SVG 20010904//EN"
 "http://www.w3.org/TR/2001/REC-SVG-20010904/DTD/svg10.dtd">
<svg version="1.0" xmlns="http://www.w3.org/2000/svg"
 width="30.000000pt" height="30.000000pt" viewBox="0 0 30.000000 30.000000"
 preserveAspectRatio="xMidYMid meet">

<g transform="translate(0.000000,30.000000) scale(0.100000,-0.100000)"
fill="#000000" stroke="none">
<path d="M82 284 c-131 -67 -94 -265 52 -281 115 -13 200 106 151 211 -35 73
-131 106 -203 70z m137 -21 l22 -18 -45 -44 -44 -44 -46 38 c-25 21 -46 41
-46 46 0 36 120 53 159 22z m-127 -70 c21 -20 38 -42 38 -48 0 -6 -17 -28 -39
-49 l-39 -38 -16 23 c-25 37 -17 149 11 149 4 0 24 -17 45 -37z m178 18 c16
-31 12 -106 -7 -130 l-18 -22 -45 46 -44 45 39 40 c44 45 59 49 75 21z m-79
-112 c43 -34 49 -53 20 -69 -42 -22 -141 -7 -141 22 0 14 60 78 73 78 5 0 27
-14 48 -31z"/>
</g>
</svg>
