<svg width="20" height="22" viewBox="0 0 20 22" fill="none" xmlns="http://www.w3.org/2000/svg">
<path d="M10 1C7.39032 1 5.25062 3.07933 5.25062 5.61538H2.08437C1.66385 5.61538 1.31754 5.93389 1.29281 6.34255L0.501244 20.1887C0.488877 20.399 0.569269 20.6094 0.717687 20.7596C0.866106 20.9159 1.07636 21 1.29281 21H18.7072C18.9236 21 19.1339 20.9159 19.2823 20.7596C19.4307 20.6094 19.5111 20.399 19.4988 20.1887L18.7072 6.34255C18.6825 5.93389 18.3361 5.61538 17.9156 5.61538H14.7494C14.7494 3.07933 12.6097 1 10 1ZM10 2.53846C11.7439 2.53846 13.1663 3.92067 13.1663 5.61538H6.83375C6.83375 3.92067 8.25609 2.53846 10 2.53846ZM2.83264 7.15385H5.25062V10.2308H6.83375V7.15385H13.1663V10.2308H14.7494V7.15385H17.1674L17.8662 19.4615H2.13384L2.83264 7.15385Z" fill="#1A1924" stroke="#1A1924" stroke-width="0.6"/>
</svg>
